PathFileType	4	(X/Y/Z)	./resultDataOpenSim/trcMotMarkerGrf/sub09/qtm-15-03.trc
DataRate	CameraRate	NumFrames	NumMarkers	Units	OrigDataRate	OrigDataStartFrame	OrigNumFrames
250.000000	250.000000	9	24	m	250.000000	309	494
Frame#	Time	L.Toe.Tip			R.Toe.Tip			L.Ankle.Lat			R.Ankle.Lat			L.Ankle.Med			R.Ankle.Med			L.Heel			R.Heel			L.Knee.Lat			R.Knee.Lat			L.Knee.Med			R.Knee.Med			L.Thigh.Upper			R.Thigh.Upper			L.ASIS			R.ASIS			V.Sacral			L.Acromium			R.Acromium			C7			L.Elbow			R.Elbow			L.Wrist.Lat			R.Wrist.Lat
		X1	Y1	Z1	X2	Y2	Z2	X3	Y3	Z3	X4	Y4	Z4	X5	Y5	Z5	X6	Y6	Z6	X7	Y7	Z7	X8	Y8	Z8	X9	Y9	Z9	X10	Y10	Z10	X11	Y11	Z11	X12	Y12	Z12	X13	Y13	Z13	X14	Y14	Z14	X15	Y15	Z15	X16	Y16	Z16	X17	Y17	Z17	X18	Y18	Z18	X19	Y19	Z19	X20	Y20	Z20	X21	Y21	Z21	X22	Y22	Z22	X23	Y23	Z23	X24	Y24	Z24

309	1.232	0.14045264	-0.026119042	-0.050599473	1.0336718	0.039059703	-0.019299226	0.12604344	0.1335766	-0.12131447	0.88996321	0.052437713	0.028746254	0.16722199	0.12444787	-0.032371359	0.89121842	0.095665876	-0.062419343	0.076947645	0.17977194	-0.068372074	0.81528037	0.032368378	-0.012472489	0.46408481	0.38348503	-0.1750658	0.92521134	0.50141742	0.085420015	0.48180842	0.36137916	-0.056851175	0.90080452	0.49278426	-0.039266876	0.58108375	0.77119257	-0.17961729	0.67430278	0.81031546	0.18145582	0.69487862	0.84411265	-0.14564284	0.73168055	0.88209652	0.089029226	0.55518243	0.93047743	-0.0091080987	0.76696894	1.302747	-0.18920489	0.73671815	1.3306532	0.13540624	0.68580679	1.370634	-0.035467978	0.64168109	0.9453678	-0.2717882	0.51693472	1.0737204	0.24833119	0.89876624	0.85134635	-0.23401452	0.52788009	0.83028541	0.37245299
310	1.236	0.14337639	-0.021841357	-0.053637091	1.0336485	0.039018355	-0.019330606	0.13344954	0.13965998	-0.12159752	0.889951	0.052441579	0.028747045	0.17469614	0.12875455	-0.032729935	0.89152174	0.095578882	-0.062510564	0.085883329	0.18674272	-0.067928974	0.81523208	0.032381476	-0.012449602	0.47549091	0.38231034	-0.17595994	0.92975445	0.50085694	0.084904138	0.49299662	0.35999419	-0.058177055	0.90516805	0.49230507	-0.039732577	0.58779055	0.77094677	-0.17961511	0.68053008	0.81066144	0.18150985	0.70105691	0.84443999	-0.14543854	0.73765103	0.88249158	0.089278741	0.56143799	0.93117847	-0.0090409782	0.77310151	1.3029612	-0.18936776	0.74323155	1.3311376	0.13527589	0.69210395	1.3711363	-0.035578501	0.64696601	0.94595686	-0.27122665	0.52400217	1.0736088	0.24828779	0.90285752	0.84869393	-0.23394225	0.53564133	0.82995516	0.37197265
311	1.24	0.14675539	-0.017040362	-0.056853176	1.0336123	0.038989388	-0.019357398	0.14109016	0.14597628	-0.12186056	0.88998209	0.052413958	0.028741554	0.182358	0.13324135	-0.033115419	0.89180824	0.095500301	-0.062574484	0.095088012	0.19381876	-0.067431686	0.81518001	0.032385556	-0.012405932	0.48699477	0.38123489	-0.17683064	0.93407469	0.50032658	0.084443253	0.50456203	0.35869341	-0.059414487	0.90935323	0.49178983	-0.040130916	0.59439284	0.77078675	-0.17962	0.68655529	0.81100293	0.18156761	0.70713116	0.84487826	-0.1452441	0.74353603	0.8829874	0.089526263	0.56747311	0.93204518	-0.0089469618	0.77911825	1.3033187	-0.18957629	0.74970567	1.3317329	0.13513107	0.69835702	1.3717439	-0.035676991	0.65223551	0.94663082	-0.27063154	0.53102159	1.0736181	0.24827538	0.9068393	0.84605741	-0.23392072	0.54341644	0.8297129	0.3713876
312	1.244	0.15059954	-0.011707185	-0.060118508	1.0335705	0.038971989	-0.019380679	0.1489832	0.15247891	-0.12213275	0.89003811	0.052358228	0.028747978	0.19024609	0.13788957	-0.033530428	0.89205596	0.095439057	-0.062598611	0.10452718	0.20097521	-0.066921328	0.81512884	0.032383633	-0.012337342	0.49859083	0.38026993	-0.17768688	0.93824282	0.4998324	0.084044153	0.51625644	0.35756005	-0.060497754	0.91334789	0.49122578	-0.040449055	0.60090077	0.77071645	-0.17960516	0.69235836	0.81136586	0.18164133	0.71312169	0.84543083	-0.14505698	0.74934014	0.88358885	0.089761856	0.57322313	0.93304809	-0.0088254209	0.78503522	1.3038147	-0.18982192	0.75613721	1.3324346	0.13497163	0.70459258	1.3724461	-0.03574435	0.65747947	0.94738737	-0.27000008	0.53801646	1.0737443	0.24830601	0.91070241	0.84344496	-0.23396287	0.55125545	0.82955341	0.37073783
313	1.248	0.15493282	-0.0058949387	-0.063266125	1.0335289	0.038958292	-0.019397528	0.15715462	0.15911383	-0.12245893	0.89014689	0.052270613	0.028745602	0.19838333	0.14270669	-0.03397608	0.89226087	0.095401954	-0.062583753	0.11415859	0.20820595	-0.066447995	0.81508164	0.03237954	-0.012254983	0.51027355	0.37942677	-0.17853765	0.9422944	0.49936453	0.083662443	0.52783457	0.35660961	-0.061405565	0.91714997	0.49061921	-0.040695984	0.60731761	0.77074487	-0.17957176	0.69793397	0.81176775	0.18173322	0.71903946	0.84609098	-0.14488337	0.7550677	0.8842926	0.089972924	0.57872534	0.9341469	-0.0086963437	0.79086148	1.3044359	-0.19010244	0.76251872	1.3332327	0.13479305	0.71082558	1.3732374	-0.035774425	0.66265675	0.94822541	-0.2693143	0.54500547	1.0739918	0.24839386	0.91444443	0.84086634	-0.23407438	0.55918879	0.82946542	0.37004928
314	1.252	0.15980087	0.00032042938	-0.066153047	1.0334856	0.038941367	-0.01941142	0.16563012	0.16582209	-0.12288413	0.8903336	0.05214455	0.028696713	0.20674836	0.14773076	-0.034451535	0.89242847	0.095385469	-0.062544443	0.1239467	0.21551389	-0.06608214	0.81503465	0.032373123	-0.01217785	0.52203732	0.3787167	-0.17939195	0.9462212	0.49889282	0.083246738	0.53936858	0.35578975	-0.062213231	0.92076725	0.48999198	-0.040891524	0.61364931	0.7708877	-0.17952999	0.70328973	0.81222569	0.1818366	0.7248893	0.84685527	-0.14472805	0.76072435	0.88509498	0.090153978	0.584133	0.93529494	-0.0085964527	0.79659296	1.3051687	-0.19041911	0.76884216	1.3341209	0.13459276	0.71703458	1.3741129	-0.035790913	0.66769551	0.94914229	-0.26853345	0.55196687	1.0743689	0.24854649	0.91806804	0.83834274	-0.23424615	0.56720705	0.82944406	0.36932147
315	1.256	0.16524067	0.0068563112	-0.068702257	1.033436	0.038921315	-0.019432609	0.17442703	0.17254602	-0.12343992	0.89056902	0.051989466	0.028581544	0.21529627	0.15300705	-0.034949378	0.89256105	0.095382021	-0.062498732	0.13386886	0.22288906	-0.065912712	0.81498077	0.032363864	-0.012120597	0.53387657	0.37815104	-0.18025877	0.94999767	0.49838262	0.08279474	0.55109972	0.35507551	-0.063023927	0.92421898	0.48937489	-0.041038781	0.61991401	0.77116881	-0.17948687	0.70844732	0.81276142	0.18194267	0.73067334	0.84772636	-0.14459463	0.7663133	0.88599328	0.090304682	0.58958251	0.93643731	-0.0085548515	0.80221497	1.3060065	-0.19076996	0.77510379	1.3350994	0.13437438	0.72316261	1.375066	-0.035838157	0.67252979	0.95013521	-0.26761344	0.55881217	1.0748682	0.24874953	0.92157519	0.83590304	-0.23446622	0.5752871	0.82949695	0.36854574
316	1.26	0.17125399	0.013624604	-0.07090351	1.0333813	0.038902663	-0.019465833	0.1835473	0.17924242	-0.12412927	0.89077375	0.051842423	0.028417075	0.22399362	0.15855439	-0.035456957	0.89266001	0.095388215	-0.062456589	0.14390586	0.23029725	-0.066019041	0.81491705	0.032355539	-0.012089278	0.54578566	0.37774102	-0.18114697	0.95360694	0.49781874	0.082361752	0.56310185	0.35451393	-0.063867521	0.92754198	0.4888021	-0.041117722	0.62613766	0.77161481	-0.17946394	0.71343911	0.81339764	0.18204369	0.7363965	0.84870994	-0.1444868	0.77183641	0.88698285	0.090427173	0.59508289	0.93751217	-0.0085788479	0.80772155	1.3069484	-0.19114791	0.78130214	1.33617	0.13414363	0.72916406	1.3761013	-0.035941438	0.67718429	0.95120457	-0.26657806	0.56541621	1.0754596	0.24895684	0.9249654	0.83357004	-0.23473269	0.58341133	0.82963584	0.3677166
317	1.264	0.17780541	0.020538034	-0.072790879	1.0333278	0.03888815	-0.019503576	0.19297049	0.18589149	-0.12492381	0.89087457	0.051751096	0.028248015	0.23283405	0.164348	-0.03596653	0.89273662	0.095405319	-0.062416208	0.15403544	0.23768763	-0.066448195	0.81484724	0.03235561	-0.012084385	0.55775885	0.37749771	-0.182065	0.95706287	0.49721414	0.082030622	0.57529676	0.35417816	-0.064722201	0.93077848	0.48830502	-0.041111547	0.63233838	0.77224651	-0.17950581	0.7183028	0.81415266	0.18213463	0.74206649	0.84981254	-0.1444055	0.77729779	0.88805423	0.090527752	0.60056095	0.93849178	-0.0086574084	0.81312784	1.3079927	-0.19154442	0.78743288	1.3373315	0.13390187	0.73504445	1.377233	-0.036089319	0.68182031	0.95235303	-0.26556547	0.5717197	1.0761158	0.24911608	0.92823773	0.83135351	-0.23505086	0.59156647	0.82986588	0.36683259
